<svg width="64" height="26" viewBox="0 0 64 26" fill="none" xmlns="http://www.w3.org/2000/svg">
<path fill-rule="evenodd" clip-rule="evenodd" d="M0.135642 24.3562L0 24.4647V25.8248L0.135642 25.9221H10.4223L10.5579 25.8248V24.4647L10.4223 24.3562L9.16761 24.2839C8.4781 24.2718 8.13334 24.2115 8.13334 23.7414C8.13334 23.6329 8.1616 23.4883 8.21811 23.3074C8.27463 23.1146 8.89632 22.0297 10.0832 20.0527L14.7289 12.3318L20.748 2.33256H21.2058V25.9221H24.3459V0.0723273C24.3459 0.0723273 17.7583 0.120545 16.6618 0.0723273C15.5654 0.0241091 14.9154 0 14.712 0L14.5763 0.126573V1.03067L14.712 1.15724C16.8144 1.26573 18.0861 1.41038 18.5269 1.5912C18.979 1.75997 19.2051 2.03722 19.2051 2.42297C19.2051 2.62789 19.1316 2.86296 18.9847 3.12816C18.9256 3.23214 18.1269 4.46463 16.9545 6.26621C16.8298 6.33916 15.7562 6.40337 12.5417 6.3251C11.4453 6.27689 10.7953 6.25278 10.5919 6.25278L10.4562 6.37935V7.28344L10.5919 7.41001C12.6943 7.51851 13.966 7.66316 14.4068 7.84398C14.8589 8.01274 15.085 8.29 15.085 8.67574C15.085 8.80138 15.0574 9.03773 15.0022 9.26293C14.3798 10.2174 13.7217 11.2262 13.0567 12.2449L8.79069 12.1907C7.69426 12.1425 7.0443 12.1184 6.84084 12.1184L6.7052 12.245V13.1491L6.84084 13.2757C8.94329 13.3841 10.2149 13.5288 10.6558 13.7096C11.1079 13.8784 11.334 14.1556 11.334 14.5414C11.334 14.6343 11.3189 14.7878 11.2886 14.9526C10.7315 15.8056 10.188 16.6374 9.67587 17.4208C9.47792 17.6167 9.31178 17.7324 9.15403 17.8252C8.92678 17.9589 7.30459 17.9559 6.02194 17.9535H6.02176C5.45426 17.9525 4.95325 17.9515 4.66895 17.9626C4.17513 17.9413 3.41638 17.9116 3.21291 17.9116L3.07727 18.0382V18.9423L3.21291 19.0688C5.31536 19.1773 6.587 19.322 7.02784 19.5028C7.47998 19.6716 7.70605 19.9488 7.70605 20.3346C7.70605 20.364 7.70453 20.3996 7.70149 20.4396C7.03955 21.4509 6.54822 22.2004 6.31913 22.548C5.70874 23.4521 5.23964 23.8198 4.91184 24.0126C4.6836 24.1469 3.41899 24.3816 2.048 24.4399C1.78626 24.4399 1.36593 24.4151 0.97995 24.3924L0.979785 24.3924C0.610794 24.3707 0.27322 24.3508 0.135642 24.3562ZM31.7941 23.4004C31.808 23.2227 31.8149 23.0857 31.8149 22.9894C31.8149 22.3821 31.6934 21.8488 31.4503 21.3896C31.2142 20.923 30.8808 20.5638 30.4503 20.312C30.0266 20.0528 29.5439 19.9232 29.0022 19.9232C28.4536 19.9232 27.9605 20.0528 27.523 20.312C27.0855 20.5712 26.7417 20.9341 26.4917 21.4007C26.2486 21.8599 26.1271 22.3784 26.1271 22.9561C26.1271 23.5412 26.2521 24.067 26.5021 24.5336C26.7591 24.9928 27.1202 25.352 27.5855 25.6112C28.0508 25.8704 28.589 26.0001 29.2002 26.0001C29.6794 26.0001 30.11 25.9186 30.4919 25.7556C30.8739 25.5927 31.1899 25.352 31.4399 25.0335L30.7419 24.1781C30.3461 24.6077 29.8426 24.8225 29.2314 24.8225C28.7522 24.8225 28.3494 24.6965 28.023 24.4447C27.7036 24.1855 27.5056 23.8374 27.4292 23.4004H31.7941ZM27.9397 21.4341C28.2314 21.1674 28.5856 21.0341 29.0022 21.0341C29.4259 21.0341 29.7801 21.1674 30.0648 21.4341C30.3496 21.7007 30.5197 22.0488 30.5753 22.4784H27.4188C27.4813 22.0414 27.6549 21.6933 27.9397 21.4341ZM34.2184 25.6112C34.6767 25.8704 35.1941 26.0001 35.7706 26.0001C36.3123 26.0001 36.788 25.8816 37.1977 25.6446C37.6144 25.4001 37.9304 25.0558 38.1457 24.6114L37.1456 23.9892C36.9859 24.2633 36.7845 24.4707 36.5414 24.6114C36.3053 24.7447 36.0449 24.8113 35.7601 24.8113C35.2671 24.8113 34.8608 24.6447 34.5413 24.3114C34.2288 23.9707 34.0725 23.5189 34.0725 22.9561C34.0725 22.3932 34.2323 21.9451 34.5517 21.6118C34.8712 21.2711 35.274 21.1008 35.7601 21.1008C36.0449 21.1008 36.3053 21.1711 36.5414 21.3119C36.7845 21.4452 36.9859 21.6488 37.1456 21.9229L38.1457 21.3008C37.9374 20.8564 37.6248 20.5157 37.2081 20.2787C36.7984 20.0417 36.3192 19.9232 35.7706 19.9232C35.1872 19.9232 34.6663 20.0528 34.208 20.312C33.7565 20.5712 33.4024 20.9304 33.1454 21.3896C32.8884 21.8488 32.76 22.371 32.76 22.9561C32.76 23.5412 32.8884 24.067 33.1454 24.5336C33.4024 24.9928 33.76 25.352 34.2184 25.6112ZM44.4194 22.9894C44.4194 23.0857 44.4125 23.2227 44.3986 23.4004H40.0338C40.1102 23.8374 40.3081 24.1855 40.6275 24.4447C40.954 24.6965 41.3568 24.8225 41.8359 24.8225C42.4471 24.8225 42.9506 24.6077 43.3465 24.1781L44.0444 25.0335C43.7944 25.352 43.4784 25.5927 43.0964 25.7556C42.7145 25.9186 42.2839 26.0001 41.8047 26.0001C41.1936 26.0001 40.6553 25.8704 40.19 25.6112C39.7247 25.352 39.3636 24.9928 39.1066 24.5336C38.8566 24.067 38.7316 23.5412 38.7316 22.9561C38.7316 22.3784 38.8531 21.8599 39.0962 21.4007C39.3462 20.9341 39.69 20.5712 40.1275 20.312C40.565 20.0528 41.0581 19.9232 41.6068 19.9232C42.1485 19.9232 42.6311 20.0528 43.0548 20.312C43.4854 20.5638 43.8187 20.923 44.0548 21.3896C44.2979 21.8488 44.4194 22.3821 44.4194 22.9894ZM41.6068 21.0341C41.1901 21.0341 40.8359 21.1674 40.5442 21.4341C40.2595 21.6933 40.0858 22.0414 40.0233 22.4784H43.1798C43.1242 22.0488 42.9541 21.7007 42.6693 21.4341C42.3846 21.1674 42.0304 21.0341 41.6068 21.0341ZM47.1458 19.9898H45.8437V25.9223H47.1458V23.5782H49.9481V25.9223H51.2503V19.9898H49.9481V22.4006H47.1458V19.9898ZM55.308 23.5449H54.2976V25.9223H52.9954V19.9898H54.2976V22.3895H55.3393L56.9852 19.9898H58.3811L56.3602 22.845L58.5166 25.9223H56.9852L55.308 23.5449ZM63.2814 20.5564C62.8508 20.1343 62.2258 19.9232 61.4063 19.9232C60.9479 19.9232 60.5139 19.9861 60.1041 20.112C59.6944 20.2379 59.3437 20.4194 59.052 20.6564L59.5624 21.6674C59.7708 21.4822 60.0243 21.3378 60.3229 21.2341C60.6285 21.1304 60.9375 21.0786 61.25 21.0786C61.7084 21.0786 62.0522 21.1897 62.2814 21.4118C62.5175 21.634 62.6355 21.9525 62.6355 22.3673V22.4561H61.198C60.3993 22.4561 59.8125 22.6191 59.4374 22.945C59.0694 23.2634 58.8853 23.6893 58.8853 24.2225C58.8853 24.5632 58.9687 24.8706 59.1353 25.1446C59.309 25.4113 59.552 25.6223 59.8645 25.7779C60.1771 25.926 60.5417 26.0001 60.9584 26.0001C61.3751 26.0001 61.7292 25.9334 62.0209 25.8001C62.3196 25.6594 62.5487 25.4594 62.7085 25.2002V25.9223H63.9377V22.445C63.9377 21.6007 63.7189 20.9712 63.2814 20.5564ZM62.0938 24.7558C61.8438 24.9113 61.5556 24.9891 61.2292 24.9891C60.8959 24.9891 60.6354 24.915 60.4479 24.7669C60.2604 24.6188 60.1666 24.4188 60.1666 24.167C60.1666 23.6411 60.5417 23.3782 61.2917 23.3782H62.6355V24.067C62.5314 24.3633 62.3508 24.5929 62.0938 24.7558Z" fill="#202020"/>
</svg>
